<svg width="549" height="347" viewBox="0 0 549 347" fill="none" xmlns="http://www.w3.org/2000/svg">
<path fill-rule="evenodd" clip-rule="evenodd" d="M46.2502 292.858L0 187.553L209.702 47.1474L172.175 127.669L227.667 91.1862L231.251 69.7713L321.204 22.1489L318.354 64.3312L364.345 0L361.883 70.5916L549 20.3787L514.064 59.7114L514.366 127.54L474.335 135.743L484.051 254.907L399.453 247.481L454.902 336.595L373.025 304.472L385.505 342.207L224.471 300.759L226.112 329.255L117.677 293.376L118.497 273.127L89.7366 291.865L69.6992 271.357L46.2502 292.858Z" fill="#4B006E"/>
<path d="M231.033 242.815L228.14 231.33L191.477 232.928L193.161 250.37L209.959 246.96L215.919 288.71L232.804 292.855L223.087 244.715L231.033 242.815Z" fill="#FFF000"/>
<path d="M206.721 219.631L203.05 195.669L193.291 198.13L193.852 204.001L187.115 205.081L183.445 175.419L190.829 171.922L193.593 188.027L201.669 185.868L196.227 134.23L170.619 151.5L175.456 224.207L206.721 219.631Z" fill="#FFF000"/>
<path d="M258.498 217.039L270.245 246.096L255.476 247.434L249.646 214.88L234.531 208.879L242.348 259.178L274.39 255.94L288.986 290.393L259.06 285.774L256.21 268.719L240.663 270.446L244.982 295.834L333.596 316.644L276.593 223.213L258.498 217.039Z" fill="#FFF000"/>
<path d="M158.01 129.87L129.293 163.892L131.107 228.655L164.704 225.417L158.01 129.87ZM139.959 182.284L148.639 174.513L150.194 200.332L141.514 201.972L139.959 182.284Z" fill="#FFF000"/>
<path d="M494.458 114.198L494.587 70.4613L398.33 119.422L399.755 134.361L432.057 128.705L431.971 214.278L462.372 220.193L456.931 125.51L494.458 114.198Z" fill="#FFF000"/>
<path d="M381.879 128.962L361.582 138.288L371.989 202.619L419.449 211.858L418.456 147.916L394.359 147.527L396.388 186.514L387.19 186.774L381.879 128.962Z" fill="#FFF000"/>
<path d="M166.042 262.806L165.913 271.873L148.898 268.03L148.51 248.472L164.92 247.306L165.611 252.703L177.184 251.71L175.241 236.857L132.488 238.8L134.345 286.034L180.811 298.9L177.27 263.626L166.042 262.806Z" fill="#FFF000"/>
<path d="M186.164 261.252L192.383 302.139L208.058 306.456L202.099 258.057L186.164 261.252Z" fill="#FFF000"/>
<path d="M323.405 156.811L318.18 161.733L322.714 168.382C327.507 168.9 330.401 169.677 335.453 170.799C333.64 168.338 332.733 167.086 330.962 164.496C333.165 162.812 334.244 162.035 336.36 160.653C331.264 158.969 328.371 157.847 323.405 156.811Z" fill="#FFF000"/>
<path d="M275.425 156.639C273.136 160.222 272.445 170.541 274.129 173.175C279.268 171.664 284.796 170.282 290.064 169.375L285.184 162.424L290.496 154.653C285.486 154.998 280.218 155.732 275.425 156.639Z" fill="#FFF000"/>
<path d="M299.478 154.307C297.189 157.07 296.066 158.538 293.777 161.603C295.548 164.28 296.455 165.619 298.268 168.209C303.537 167.691 308.849 167.734 314.117 167.864L309.669 160.999L315.24 155.386C310.015 154.739 304.703 154.35 299.478 154.307Z" fill="#FFF000"/>
<path d="M343.872 163.763L339.467 166.699L342.835 173.002C347.845 174.427 349.27 174.772 354.279 176.931C352.552 174.557 351.688 173.348 349.961 170.844C351.99 169.98 352.983 169.635 354.97 169.073C350.133 166.353 348.665 165.662 343.872 163.763Z" fill="#FFF000"/>
<path d="M173.902 87.9034L68.7483 160.179L50.0063 215.745L48.7108 215.659L47.3721 174.858L16.625 196.014L49.1858 269.326L53.2883 266.304L50.3086 235.088L53.5906 231.332L81.3149 267.988L87.922 263.584L64.8185 222.481L173.902 87.9034Z" fill="#FFF000"/>
<path d="M418.111 309.437L361.021 231.204L361.194 230.945L455.422 238.673L327.467 203.053L327.64 202.492H339.904L357.955 202.449L346.771 195.8C350.225 191.612 352.946 186.733 354.673 181.379C330.101 170.283 296.159 169.29 270.594 179.177C275.603 194.98 290.07 209.271 307.646 211.429C314.771 212.293 321.724 211.386 328.029 209.098L375.272 222.309L375.229 222.784L336.104 222.266L361.453 261.124L361.151 261.426L298.879 229.261L348.584 303.004L324.272 251.841L324.488 251.625L418.111 309.437Z" fill="#FFF000"/>
<path d="M326.646 141.226L326.43 140.837L465.871 66.6186L346.035 93.7327L345.301 48.9167L305.442 103.404L305.097 103.318L305.313 49.7803L249.605 81.4709L225.94 172.096L224.342 172.053L226.502 110.787L206.594 123.869L216.828 221.747L236.045 189.064L268.563 210.047L247.273 175.118L294.56 75.0378L294.905 75.1242L297.712 118.343C301.556 117.091 305.572 116.357 309.717 116.227L332.821 77.8442L333.166 77.8874L334.332 107.592C334.376 107.635 372.55 101.85 378.423 100.986L378.639 101.202L333.21 129.18C328.675 126.805 323.623 125.164 318.268 124.517C294.473 121.581 279.186 136.519 271.759 152.883C304.19 147.011 330.144 151.156 356.659 165.058C355.968 154.783 351.692 145.327 344.956 138.117L326.646 141.226Z" fill="#FFF000"/>
<path d="M105.543 261.035L99.2384 231.417L100.448 230.856L114.871 255.077L121.521 250.846L118.758 176.368L107.098 190.184L108.566 217.817L107.962 218.162L98.1588 200.719L79.6328 222.695L100.318 264.403L105.543 261.035Z" fill="#FFF000"/>
</svg>
